<svg xmlns="http://www.w3.org/2000/svg" height="20" viewBox="0 96 960 960" width="20"><path d="M446.5 285.5v-139h67v139h-67ZM709 396l-51-48 101-98 48.5 45.5L709 396Zm61.5 213.5v-67h139v67h-139Zm-324 396v-139h67v139h-67Zm-195-610-100.5-99 50.5-46L298 347l-46.5 48.5ZM760 906l-97.5-101.5 47-47L810 854l-50 52ZM50.5 609.5v-67h139v67h-139ZM200 905l-47-49 98.5-96.5L274 782l22 23-96 100Zm279.971-91.5q-98.971 0-168.221-69.279-69.25-69.28-69.25-168.25 0-98.971 69.279-168.221 69.28-69.25 168.25-69.25 98.971 0 168.221 69.279 69.25 69.28 69.25 168.25 0 98.971-69.279 168.221-69.28 69.25-168.25 69.25Z"/></svg>